<svg xmlns="http://www.w3.org/2000/svg" width="27" height="24" viewBox="0 0 27 24">
  <path id="Icon_material-high-quality" data-name="Icon material-high-quality" d="M28.5,6H7.5a3,3,0,0,0-3,3V27a3,3,0,0,0,3,3h21a3.009,3.009,0,0,0,3-3V9A3.009,3.009,0,0,0,28.5,6Zm-12,16.5H14.25v-3h-3v3H9v-9h2.25v3.75h3V13.5H16.5ZM27,21a1.5,1.5,0,0,1-1.5,1.5H24.375v2.25h-2.25V22.5H21A1.5,1.5,0,0,1,19.5,21V15A1.5,1.5,0,0,1,21,13.5h4.5A1.5,1.5,0,0,1,27,15Zm-5.25-.75h3v-4.5h-3Z" transform="translate(-4.5 -6)" fill="#fff"/>
</svg>
