<svg xmlns="http://www.w3.org/2000/svg" width="30.451" height="24.107" viewBox="0 0 30.451 24.107">
  <path id="Icon_simple-boost" data-name="Icon simple-boost" d="M20.07,23.731a2.269,2.269,0,0,0,.207-.19,2.893,2.893,0,0,0,0-4.021l-9.9-10.15c-.069.063-.138.126-.2.193a2.89,2.89,0,0,0,0,4.022l9.9,10.147ZM27.337,9.268a3.752,3.752,0,0,1,2,1.108,4.185,4.185,0,0,1,0,5.7l-7.051,7.419a2.722,2.722,0,0,1-1.647.808l4.192,4.308L3.117,23.839a3.8,3.8,0,0,1-1.995-1.114,4.181,4.181,0,0,1,0-5.7L8.167,9.616A2.7,2.7,0,0,1,9.821,8.8L5.626,4.5,27.335,9.268Z" transform="translate(0 -4.5)" fill="#fff"/>
</svg>
